STARTFONT 2.1
COMMENT AUTOMATICALLY GENERATED FILE. DO NOT EDIT!
COMMENT Generated with 'ucs2any.pl luRS18.bdf ../../../fonts/util/map-ISO8859-1 ISO8859-1'
COMMENT from an ISO10646-1 encoded source BDF font.
COMMENT ucs2any.pl by Markus Kuhn <mkuhn@acm.org>, 2000.
COMMENT $Xorg: $
COMMENT ISO10646-1 extension by Markus Kuhn <mkuhn@acm.org>, 2001-03-20
COMMENT  (c) Copyright Bigelow & Holmes 1986, 1985. Lucida is a registered
COMMENT  trademark of Bigelow & Holmes. See LEGAL NOTICE file for terms 
COMMENT  of the license. 
FONT -B&H-Lucida-Medium-R-Normal-Sans-25-180-100-100-P-142-ISO8859-1
SIZE 18 100 100
FONTBOUNDINGBOX 39 28 -16 -5
STARTPROPERTIES 22
COMMENT Begin LogicalFontDescription
FONTNAME_REGISTRY ""
FOUNDRY "B&H"
FAMILY_NAME "Lucida"
WEIGHT_NAME "Medium"
SLANT "R"
SETWIDTH_NAME "Normal"
ADD_STYLE_NAME "Sans"
PIXEL_SIZE 25
POINT_SIZE 180
RESOLUTION_X 100
RESOLUTION_Y 100
SPACING "P"
AVERAGE_WIDTH 142
CHARSET_REGISTRY "ISO8859"
CHARSET_ENCODING "1"
COMMENT END LogicalFontDescription
FONT_ASCENT 23
FONT_DESCENT 6
DEFAULT_CHAR 0
COPYRIGHT "Copyright Bigelow & Holmes 1986, 1985."
FACE_NAME "Lucida Sans"
X_HEIGHT 13
CAP_HEIGHT 18
ENDPROPERTIES
CHARS 192
STARTCHAR defaultchar
ENCODING 0
SWIDTH 735 0
DWIDTH 18 0
BBX 13 17 2 0
BITMAP
AAA8
0000
8008
0000
8008
0000
8008
0000
8008
0000
8008
0000
8008
0000
8008
0000
AAA8
ENDCHAR
STARTCHAR space
ENCODING 32
SWIDTH 316 0
DWIDTH 8 0
BBX 1 1 0 0
BITMAP
00
ENDCHAR
STARTCHAR exclam
ENCODING 33
SWIDTH 205 0
DWIDTH 8 0
BBX 2 18 3 0
BITMAP
C0
C0
C0
C0
C0
C0
C0
C0
C0
C0
C0
C0
C0
00
00
C0
C0
C0
ENDCHAR
STARTCHAR quotedbl
ENCODING 34
SWIDTH 373 0
DWIDTH 9 0
BBX 6 6 2 12
BITMAP
CC
CC
CC
CC
CC
CC
ENDCHAR
STARTCHAR numbersign
ENCODING 35
SWIDTH 633 0
DWIDTH 16 0
BBX 15 18 0 0
BITMAP
0318
0318
0330
0630
0630
7FFE
7FFE
0660
0C60
0C60
0CC0
FFFC
FFFC
18C0
19C0
1980
3180
3180
ENDCHAR
STARTCHAR dollar
ENCODING 36
SWIDTH 633 0
DWIDTH 16 0
BBX 11 22 2 -2
BITMAP
0600
0600
1FC0
3FE0
7600
6600
6600
6600
3600
3E00
0E00
0780
07C0
06E0
0660
0660
0660
86E0
FFC0
7F80
0600
0600
ENDCHAR
STARTCHAR percent
ENCODING 37
SWIDTH 669 0
DWIDTH 17 0
BBX 17 18 0 0
BITMAP
3C0380
7E0700
E70600
C30C00
C31800
E73800
7E7000
3CE000
00DE00
01BF00
03F380
076180
0E6180
0C6180
186180
307380
703F00
E01E00
ENDCHAR
STARTCHAR ampersand
ENCODING 38
SWIDTH 697 0
DWIDTH 17 0
BBX 16 18 1 0
BITMAP
03C0
07E0
0E30
0E30
0E30
0E70
07E0
0FC0
3F87
7387
E1C7
E0E6
E066
E07E
F03C
7838
3FEC
0F8F
ENDCHAR
STARTCHAR quotesingle
ENCODING 39
SWIDTH 229 0
DWIDTH 6 0
BBX 4 6 1 12
BITMAP
F0
F0
F0
60
60
60
ENDCHAR
STARTCHAR parenleft
ENCODING 40
SWIDTH 325 0
DWIDTH 8 0
BBX 6 22 1 -4
BITMAP
04
0C
18
38
30
70
60
E0
E0
E0
E0
E0
E0
E0
E0
60
70
30
38
18
0C
04
ENDCHAR
STARTCHAR parenright
ENCODING 41
SWIDTH 325 0
DWIDTH 8 0
BBX 6 22 1 -4
BITMAP
80
C0
60
70
30
38
18
1C
1C
1C
1C
1C
1C
1C
1C
18
38
30
70
60
C0
80
ENDCHAR
STARTCHAR asterisk
ENCODING 42
SWIDTH 482 0
DWIDTH 12 0
BBX 9 9 2 9
BITMAP
0800
0800
4880
EB80
3600
1400
3600
6200
2300
ENDCHAR
STARTCHAR plus
ENCODING 43
SWIDTH 633 0
DWIDTH 16 0
BBX 14 15 1 0
BITMAP
0300
0300
0300
0300
0300
0300
FFFC
FFFC
0300
0300
0300
0300
0300
0300
0300
ENDCHAR
STARTCHAR comma
ENCODING 44
SWIDTH 316 0
DWIDTH 8 0
BBX 3 8 2 -5
BITMAP
E0
E0
E0
60
60
60
C0
C0
ENDCHAR
STARTCHAR hyphen
ENCODING 45
SWIDTH 325 0
DWIDTH 8 0
BBX 5 2 2 7
BITMAP
F8
F8
ENDCHAR
STARTCHAR period
ENCODING 46
SWIDTH 316 0
DWIDTH 8 0
BBX 3 3 2 0
BITMAP
E0
E0
E0
ENDCHAR
STARTCHAR slash
ENCODING 47
SWIDTH 494 0
DWIDTH 12 0
BBX 12 22 0 -4
BITMAP
0030
0060
0060
00E0
00C0
01C0
0180
0180
0300
0300
0600
0600
0C00
0C00
1800
1800
3800
3000
7000
6000
6000
C000
ENDCHAR
STARTCHAR zero
ENCODING 48
SWIDTH 633 0
DWIDTH 16 0
BBX 13 18 1 0
BITMAP
0F80
1FC0
38E0
7070
7070
E038
E038
E038
E038
E038
E038
E038
E038
7070
7070
38E0
1FC0
0F80
ENDCHAR
STARTCHAR one
ENCODING 49
SWIDTH 633 0
DWIDTH 16 0
BBX 6 18 3 0
BITMAP
FC
FC
1C
1C
1C
1C
1C
1C
1C
1C
1C
1C
1C
1C
1C
1C
1C
1C
ENDCHAR
STARTCHAR two
ENCODING 50
SWIDTH 633 0
DWIDTH 16 0
BBX 11 18 2 0
BITMAP
3F00
FFC0
C1C0
00E0
00E0
00E0
00E0
01C0
01C0
0380
0F00
1C00
3800
3000
7000
E000
FFE0
FFE0
ENDCHAR
STARTCHAR three
ENCODING 51
SWIDTH 633 0
DWIDTH 16 0
BBX 11 18 2 0
BITMAP
7F00
FFC0
C1E0
00E0
00E0
00E0
00C0
0300
3E00
3F80
03C0
00E0
00E0
00E0
00E0
83C0
FF80
FF00
ENDCHAR
STARTCHAR four
ENCODING 52
SWIDTH 633 0
DWIDTH 16 0
BBX 12 18 2 0
BITMAP
01C0
01C0
03C0
07C0
06C0
0CC0
1CC0
38C0
30C0
60C0
E0C0
FFF0
FFF0
00C0
00C0
00C0
00C0
00C0
ENDCHAR
STARTCHAR five
ENCODING 53
SWIDTH 633 0
DWIDTH 16 0
BBX 9 18 3 0
BITMAP
FF80
FF80
C000
C000
C000
C000
F800
FE00
0F00
0780
0380
0380
0380
0380
0780
8F00
FE00
FC00
ENDCHAR
STARTCHAR six
ENCODING 54
SWIDTH 633 0
DWIDTH 16 0
BBX 12 18 2 0
BITMAP
0FC0
1FE0
3820
7000
7000
E000
E000
E780
EFE0
F8E0
E070
E070
E070
6070
7070
38E0
3FC0
0F80
ENDCHAR
STARTCHAR seven
ENCODING 55
SWIDTH 633 0
DWIDTH 16 0
BBX 12 18 3 0
BITMAP
FFF0
FFF0
0070
0060
00C0
01C0
0180
0380
0700
0600
0E00
1C00
1C00
3800
3800
3800
7000
7000
ENDCHAR
STARTCHAR eight
ENCODING 56
SWIDTH 633 0
DWIDTH 16 0
BBX 12 18 2 0
BITMAP
0F80
1FC0
38E0
3060
3060
3060
38C0
1F80
1F80
3FC0
73E0
E0F0
E070
E070
E070
70E0
7FC0
1F80
ENDCHAR
STARTCHAR nine
ENCODING 57
SWIDTH 633 0
DWIDTH 16 0
BBX 12 18 2 0
BITMAP
1F00
3FC0
71E0
70E0
E060
E070
E070
E070
F070
71F0
3F70
1E70
0060
00E0
00E0
41C0
7F80
7E00
ENDCHAR
STARTCHAR colon
ENCODING 58
SWIDTH 316 0
DWIDTH 8 0
BBX 3 13 2 0
BITMAP
E0
E0
E0
00
00
00
00
00
00
00
E0
E0
E0
ENDCHAR
STARTCHAR semicolon
ENCODING 59
SWIDTH 316 0
DWIDTH 8 0
BBX 3 18 2 -5
BITMAP
E0
E0
E0
00
00
00
00
00
00
00
00
E0
E0
60
60
60
C0
80
ENDCHAR
STARTCHAR less
ENCODING 60
SWIDTH 633 0
DWIDTH 16 0
BBX 14 15 1 0
BITMAP
0004
001C
007C
01F0
07C0
0F00
3C00
F000
3C00
0F00
07C0
01F0
0078
001C
0004
ENDCHAR
STARTCHAR equal
ENCODING 61
SWIDTH 633 0
DWIDTH 16 0
BBX 14 6 1 4
BITMAP
FFFC
FFFC
0000
0000
FFFC
FFFC
ENDCHAR
STARTCHAR greater
ENCODING 62
SWIDTH 633 0
DWIDTH 16 0
BBX 14 15 1 0
BITMAP
8000
E000
7800
3E00
0F80
03C0
00F0
003C
00F0
03C0
0F80
3E00
F800
E000
8000
ENDCHAR
STARTCHAR question
ENCODING 63
SWIDTH 422 0
DWIDTH 11 0
BBX 10 18 0 0
BITMAP
7E00
FF80
83C0
01C0
01C0
01C0
0380
0300
0600
0E00
1C00
1C00
1C00
0000
0000
1C00
1C00
1C00
ENDCHAR
STARTCHAR at
ENCODING 64
SWIDTH 858 0
DWIDTH 21 0
BBX 20 18 3 0
BITMAP
00FE00
03FF80
0F83C0
1C00E0
387E60
30FC30
618430
630C30
C21C30
C61830
C63860
C64CE0
C7CFC0
630700
700000
3C0800
1FF800
07E000
ENDCHAR
STARTCHAR A
ENCODING 65
SWIDTH 690 0
DWIDTH 17 0
BBX 17 18 0 0
BITMAP
01C000
01E000
03E000
03E000
037000
067000
067800
0E3800
0C3800
0C1C00
181C00
1FFE00
3FFE00
300E00
300700
600700
600780
C00380
ENDCHAR
STARTCHAR B
ENCODING 66
SWIDTH 575 0
DWIDTH 14 0
BBX 11 18 2 0
BITMAP
FE00
FF80
E3C0
E1C0
E1C0
E1C0
E380
E300
FE00
FF80
E3C0
E1E0
E0E0
E0E0
E0E0
E1E0
FFC0
FF00
ENDCHAR
STARTCHAR C
ENCODING 67
SWIDTH 692 0
DWIDTH 17 0
BBX 15 18 1 0
BITMAP
03FC
0FFE
3E06
3800
7000
7000
E000
E000
E000
E000
E000
E000
F000
7000
7802
3E0E
1FFE
07F8
ENDCHAR
STARTCHAR D
ENCODING 68
SWIDTH 749 0
DWIDTH 19 0
BBX 15 18 2 0
BITMAP
FFC0
FFF0
E078
E03C
E01C
E01E
E00E
E00E
E00E
E00E
E00E
E00E
E00C
E01C
E038
E078
FFE0
FF80
ENDCHAR
STARTCHAR E
ENCODING 69
SWIDTH 542 0
DWIDTH 14 0
BBX 11 18 2 0
BITMAP
FFC0
FFC0
E000
E000
E000
E000
E000
E000
FF80
FF80
E000
E000
E000
E000
E000
E000
FFE0
FFE0
ENDCHAR
STARTCHAR F
ENCODING 70
SWIDTH 536 0
DWIDTH 13 0
BBX 11 18 2 0
BITMAP
FFE0
FFE0
E000
E000
E000
E000
E000
E000
FFC0
FFC0
E000
E000
E000
E000
E000
E000
E000
E000
ENDCHAR
STARTCHAR G
ENCODING 71
SWIDTH 723 0
DWIDTH 18 0
BBX 15 18 1 0
BITMAP
03FC
0FFE
3E06
3800
7000
7000
E000
E000
E000
E000
E00E
E00E
F00E
700E
780E
3E0E
1FFE
07F8
ENDCHAR
STARTCHAR H
ENCODING 72
SWIDTH 735 0
DWIDTH 18 0
BBX 14 18 2 0
BITMAP
E01C
E01C
E01C
E01C
E01C
E01C
E01C
E01C
FFFC
FFFC
E01C
E01C
E01C
E01C
E01C
E01C
E01C
E01C
ENDCHAR
STARTCHAR I
ENCODING 73
SWIDTH 288 0
DWIDTH 7 0
BBX 3 18 2 0
BITMAP
E0
E0
E0
E0
E0
E0
E0
E0
E0
E0
E0
E0
E0
E0
E0
E0
E0
E0
ENDCHAR
STARTCHAR J
ENCODING 74
SWIDTH 311 0
DWIDTH 8 0
BBX 8 22 -1 -4
BITMAP
07
07
07
07
07
07
07
07
07
07
07
07
07
07
07
07
07
07
07
0E
FC
F8
ENDCHAR
STARTCHAR K
ENCODING 75
SWIDTH 653 0
DWIDTH 16 0
BBX 14 18 2 0
BITMAP
E038
E060
E0E0
E1C0
E180
E300
E700
EE00
FC00
FE00
EF00
E780
E3C0
E1E0
E1E0
E0F0
E078
E03C
ENDCHAR
STARTCHAR L
ENCODING 76
SWIDTH 533 0
DWIDTH 13 0
BBX 11 18 2 0
BITMAP
E000
E000
E000
E000
E000
E000
E000
E000
E000
E000
E000
E000
E000
E000
E000
E000
FFE0
FFE0
ENDCHAR
STARTCHAR M
ENCODING 77
SWIDTH 861 0
DWIDTH 22 0
BBX 17 18 2 0
BITMAP
F00780
F00780
F80780
F80F80
F80F80
DC1F80
DC1B80
DC1B80
CE3380
CE3380
CF3380
C76380
C76380
C7E380
C3C380
C3C380
C3C380
C00380
ENDCHAR
STARTCHAR N
ENCODING 78
SWIDTH 741 0
DWIDTH 19 0
BBX 14 18 2 0
BITMAP
E00C
F00C
F00C
F80C
FC0C
DC0C
DE0C
CF0C
C70C
C38C
C3CC
C1EC
C0EC
C0FC
C07C
C03C
C03C
C01C
ENDCHAR
STARTCHAR O
ENCODING 79
SWIDTH 777 0
DWIDTH 19 0
BBX 17 18 1 0
BITMAP
07F000
1FFC00
3C1E00
780F00
700700
700700
E00380
E00380
E00380
E00380
E00380
E00380
700700
700700
780F00
3C1E00
1FFC00
07F000
ENDCHAR
STARTCHAR P
ENCODING 80
SWIDTH 553 0
DWIDTH 14 0
BBX 11 18 2 0
BITMAP
FF80
FFC0
E1E0
E0E0
E0E0
E0E0
E0E0
E1E0
E3C0
FF80
FE00
E000
E000
E000
E000
E000
E000
E000
ENDCHAR
STARTCHAR Q
ENCODING 81
SWIDTH 777 0
DWIDTH 19 0
BBX 19 22 1 -4
BITMAP
07F000
1FFC00
3C1E00
780E00
700700
700700
E00380
E00380
E00380
E00380
E00380
E00380
700780
700700
780F00
3C1E00
1FFC00
07F000
001E00
000FE0
0003C0
0000C0
ENDCHAR
STARTCHAR R
ENCODING 82
SWIDTH 633 0
DWIDTH 16 0
BBX 13 18 2 0
BITMAP
FF00
FFC0
E1E0
E0E0
E0E0
E0E0
E0E0
E1C0
E380
FE00
FF00
E780
E380
E1C0
E1E0
E0F0
E070
E078
ENDCHAR
STARTCHAR S
ENCODING 83
SWIDTH 539 0
DWIDTH 13 0
BBX 11 18 1 0
BITMAP
1F80
7FC0
70C0
E000
E000
E000
F800
7C00
3F00
0F80
03C0
01E0
00E0
00E0
00E0
C1C0
FF80
7F00
ENDCHAR
STARTCHAR T
ENCODING 84
SWIDTH 633 0
DWIDTH 16 0
BBX 15 18 0 0
BITMAP
FFFE
FFFE
0380
0380
0380
0380
0380
0380
0380
0380
0380
0380
0380
0380
0380
0380
0380
0380
ENDCHAR
STARTCHAR U
ENCODING 85
SWIDTH 693 0
DWIDTH 17 0
BBX 13 18 2 0
BITMAP
E018
E018
E018
E018
E018
E018
E018
E018
E018
E018
E018
E018
E018
E018
F038
7870
3FE0
1FC0
ENDCHAR
STARTCHAR V
ENCODING 86
SWIDTH 654 0
DWIDTH 16 0
BBX 16 18 0 0
BITMAP
E003
E006
7006
7006
780C
380C
381C
1C18
1C18
1E30
0E30
0E30
0F60
0760
07E0
03C0
03C0
0380
ENDCHAR
STARTCHAR W
ENCODING 87
SWIDTH 855 0
DWIDTH 21 0
BBX 21 18 0 0
BITMAP
E07018
E07038
E07830
70F830
70F830
70F860
70DC60
38DC60
399C60
399CC0
399EC0
1D8EC0
1F0EC0
1F0F80
1F0F80
0F0780
0F0700
0E0700
ENDCHAR
STARTCHAR X
ENCODING 88
SWIDTH 626 0
DWIDTH 16 0
BBX 15 18 0 0
BITMAP
F00E
781C
3818
3C30
1E70
0E60
0FC0
07C0
0380
03C0
07C0
0FE0
0CF0
1870
3878
303C
601C
E01E
ENDCHAR
STARTCHAR Y
ENCODING 89
SWIDTH 623 0
DWIDTH 16 0
BBX 15 18 0 0
BITMAP
E00E
700C
7818
3818
3C30
1C70
1E60
0FE0
07C0
0780
0380
0380
0380
0380
0380
0380
0380
0380
ENDCHAR
STARTCHAR Z
ENCODING 90
SWIDTH 605 0
DWIDTH 15 0
BBX 13 18 1 0
BITMAP
7FF8
7FF8
0078
0070
00E0
01E0
03C0
0380
0780
0F00
0E00
1E00
3C00
7800
7000
F000
FFF8
FFF8
ENDCHAR
STARTCHAR bracketleft
ENCODING 91
SWIDTH 325 0
DWIDTH 8 0
BBX 5 22 2 -4
BITMAP
F8
F8
C0
C0
C0
C0
C0
C0
C0
C0
C0
C0
C0
C0
C0
C0
C0
C0
C0
C0
F8
F8
ENDCHAR
STARTCHAR backslash
ENCODING 92
SWIDTH 494 0
DWIDTH 12 0
BBX 12 22 0 -4
BITMAP
C000
6000
6000
7000
3000
3800
1800
1800
0C00
0C00
0600
0600
0300
0300
0180
0180
01C0
00C0
00E0
0060
0060
0030
ENDCHAR
STARTCHAR bracketright
ENCODING 93
SWIDTH 325 0
DWIDTH 8 0
BBX 5 22 1 -4
BITMAP
F8
F8
18
18
18
18
18
18
18
18
18
18
18
18
18
18
18
18
18
18
F8
F8
ENDCHAR
STARTCHAR asciicircum
ENCODING 94
SWIDTH 633 0
DWIDTH 16 0
BBX 14 15 1 3
BITMAP
0100
0300
0300
0780
0780
0FC0
0CC0
1CE0
1860
3870
3030
3030
6018
6018
C00C
ENDCHAR
STARTCHAR underscore
ENCODING 95
SWIDTH 500 0
DWIDTH 13 0
BBX 10 2 1 -2
BITMAP
FFC0
FFC0
ENDCHAR
STARTCHAR grave
ENCODING 96
SWIDTH 614 0
DWIDTH 15 0
BBX 5 4 5 14
BITMAP
E0
60
30
18
ENDCHAR
STARTCHAR a
ENCODING 97
SWIDTH 552 0
DWIDTH 14 0
BBX 12 13 1 0
BITMAP
1F80
7FC0
41C0
01C0
01C0
1FC0
7FC0
F1C0
E1C0
E1C0
E3C0
7EF0
3C70
ENDCHAR
STARTCHAR b
ENCODING 98
SWIDTH 630 0
DWIDTH 16 0
BBX 12 18 2 0
BITMAP
E000
E000
E000
E000
E000
E780
EFE0
F8E0
E0F0
E070
E070
E070
E070
E070
E0E0
F1E0
FFC0
CF80
ENDCHAR
STARTCHAR c
ENCODING 99
SWIDTH 518 0
DWIDTH 13 0
BBX 11 13 1 0
BITMAP
0FE0
3FE0
7820
7000
E000
E000
E000
E000
E000
7000
7820
3FE0
0FC0
ENDCHAR
STARTCHAR d
ENCODING 100
SWIDTH 630 0
DWIDTH 16 0
BBX 12 18 1 0
BITMAP
0070
0070
0070
0070
0070
1E70
3FF0
78F0
7070
E070
E070
E070
E070
E070
F070
71F0
7F70
1E70
ENDCHAR
STARTCHAR e
ENCODING 101
SWIDTH 557 0
DWIDTH 14 0
BBX 11 13 1 0
BITMAP
1F00
3F80
71C0
60E0
E0E0
FFE0
FFE0
E000
E000
7000
7820
3FE0
0FC0
ENDCHAR
STARTCHAR f
ENCODING 102
SWIDTH 367 0
DWIDTH 9 0
BBX 10 20 0 0
BITMAP
07C0
1FC0
1C40
3800
3800
3800
3800
FF00
FF00
3800
3800
3800
3800
3800
3800
3800
3800
3800
3800
3800
ENDCHAR
STARTCHAR g
ENCODING 103
SWIDTH 623 0
DWIDTH 16 0
BBX 12 18 1 -5
BITMAP
1E70
3FF0
78F0
7070
E070
E070
E070
E070
E070
E070
71F0
7F70
1E70
0070
0060
40E0
7FC0
3F80
ENDCHAR
STARTCHAR h
ENCODING 104
SWIDTH 620 0
DWIDTH 16 0
BBX 11 18 2 0
BITMAP
E000
E000
E000
E000
E000
E780
EFC0
F8E0
F0E0
E0E0
E0E0
E0E0
E0E0
E0E0
E0E0
E0E0
E0E0
E0E0
ENDCHAR
STARTCHAR i
ENCODING 105
SWIDTH 289 0
DWIDTH 7 0
BBX 3 18 2 0
BITMAP
E0
E0
E0
00
00
E0
E0
E0
E0
E0
E0
E0
E0
E0
E0
E0
E0
E0
ENDCHAR
STARTCHAR j
ENCODING 106
SWIDTH 304 0
DWIDTH 8 0
BBX 8 23 -1 -5
BITMAP
07
07
07
00
00
07
07
07
07
07
07
07
07
07
07
07
07
07
07
07
8E
FE
F8
ENDCHAR
STARTCHAR k
ENCODING 107
SWIDTH 585 0
DWIDTH 15 0
BBX 12 18 2 0
BITMAP
E000
E000
E000
E000
E000
E0E0
E1C0
E380
E700
E600
EC00
FE00
EF00
EF80
E780
E3C0
E1E0
E0F0
ENDCHAR
STARTCHAR l
ENCODING 108
SWIDTH 289 0
DWIDTH 7 0
BBX 3 18 2 0
BITMAP
E0
E0
E0
E0
E0
E0
E0
E0
E0
E0
E0
E0
E0
E0
E0
E0
E0
E0
ENDCHAR
STARTCHAR m
ENCODING 109
SWIDTH 934 0
DWIDTH 23 0
BBX 19 13 2 0
BITMAP
E7C780
EFCFC0
F8F9E0
F0F0E0
E0E0E0
E0E0E0
E0E0E0
E0E0E0
E0E0E0
E0E0E0
E0E0E0
E0E0E0
E0E0E0
ENDCHAR
STARTCHAR n
ENCODING 110
SWIDTH 620 0
DWIDTH 16 0
BBX 11 13 2 0
BITMAP
E780
EFC0
F8E0
F0E0
E0E0
E0E0
E0E0
E0E0
E0E0
E0E0
E0E0
E0E0
E0E0
ENDCHAR
STARTCHAR o
ENCODING 111
SWIDTH 614 0
DWIDTH 15 0
BBX 13 13 1 0
BITMAP
0F80
3FE0
78F0
7070
E038
E038
E038
E038
E038
7070
78F0
3FE0
0F80
ENDCHAR
STARTCHAR p
ENCODING 112
SWIDTH 630 0
DWIDTH 16 0
BBX 12 18 2 -5
BITMAP
E780
EFE0
F8E0
E0F0
E070
E070
E070
E070
E070
E0E0
F1E0
FFC0
E780
E000
E000
E000
E000
E000
ENDCHAR
STARTCHAR q
ENCODING 113
SWIDTH 630 0
DWIDTH 16 0
BBX 12 18 1 -5
BITMAP
1E70
3FF0
78F0
7070
E070
E070
E070
E070
E070
F070
71F0
7F70
1E70
0070
0070
0070
0070
0070
ENDCHAR
STARTCHAR r
ENCODING 114
SWIDTH 409 0
DWIDTH 10 0
BBX 8 13 2 0
BITMAP
E7
EF
F8
F0
E0
E0
E0
E0
E0
E0
E0
E0
E0
ENDCHAR
STARTCHAR s
ENCODING 115
SWIDTH 510 0
DWIDTH 13 0
BBX 9 13 2 0
BITMAP
3F00
7F00
E100
E000
F000
FE00
7F00
1F80
0380
0380
8780
FF00
7E00
ENDCHAR
STARTCHAR t
ENCODING 116
SWIDTH 374 0
DWIDTH 9 0
BBX 8 16 1 0
BITMAP
38
38
38
FF
FF
38
38
38
38
38
38
38
38
38
1F
0F
ENDCHAR
STARTCHAR u
ENCODING 117
SWIDTH 620 0
DWIDTH 16 0
BBX 11 13 2 0
BITMAP
E0E0
E0E0
E0E0
E0E0
E0E0
E0E0
E0E0
E0E0
E0E0
E1E0
E3E0
7EE0
3CE0
ENDCHAR
STARTCHAR v
ENCODING 118
SWIDTH 572 0
DWIDTH 13 0
BBX 13 13 0 0
BITMAP
E038
E030
7030
7060
7860
38E0
38C0
1CC0
1D80
1F80
0F00
0F00
0F00
ENDCHAR
STARTCHAR w
ENCODING 119
SWIDTH 840 0
DWIDTH 19 0
BBX 19 13 0 0
BITMAP
C0E060
60E0C0
60E0C0
61B0C0
61B180
31B180
333980
331B00
1B1B00
1E1B00
1E0E00
1E0E00
0C0E00
ENDCHAR
STARTCHAR x
ENCODING 120
SWIDTH 613 0
DWIDTH 15 0
BBX 13 13 1 0
BITMAP
E038
7070
38E0
1CC0
0DC0
0780
0700
0F80
1D80
18C0
30E0
7070
E038
ENDCHAR
STARTCHAR y
ENCODING 121
SWIDTH 568 0
DWIDTH 13 0
BBX 13 18 0 -5
BITMAP
E018
F030
7030
7070
7860
3860
3CC0
1CC0
1D80
1F80
0F80
0F00
0700
0600
0600
0E00
0C00
1C00
ENDCHAR
STARTCHAR z
ENCODING 122
SWIDTH 573 0
DWIDTH 14 0
BBX 11 13 2 0
BITMAP
FFE0
FFE0
00C0
0180
0300
0700
0E00
1C00
3800
3000
6000
FFE0
FFE0
ENDCHAR
STARTCHAR braceleft
ENCODING 123
SWIDTH 325 0
DWIDTH 8 0
BBX 6 22 0 -4
BITMAP
0C
1C
30
30
30
30
30
30
30
30
E0
E0
30
30
30
30
30
30
30
30
1C
0C
ENDCHAR
STARTCHAR bar
ENCODING 124
SWIDTH 265 0
DWIDTH 7 0
BBX 2 22 2 -4
BITMAP
C0
C0
C0
C0
C0
C0
C0
C0
C0
C0
C0
C0
C0
C0
C0
C0
C0
C0
C0
C0
C0
C0
ENDCHAR
STARTCHAR braceright
ENCODING 125
SWIDTH 325 0
DWIDTH 8 0
BBX 6 22 2 -4
BITMAP
C0
E0
30
30
30
30
30
30
30
30
1C
1C
30
30
30
30
30
30
30
30
E0
C0
ENDCHAR
STARTCHAR asciitilde
ENCODING 126
SWIDTH 633 0
DWIDTH 16 0
BBX 14 6 1 4
BITMAP
380C
7E0C
670C
C398
C1F8
C070
ENDCHAR
STARTCHAR space
ENCODING 160
SWIDTH 316 0
DWIDTH 8 0
BBX 1 1 0 0
BITMAP
00
ENDCHAR
STARTCHAR exclamdown
ENCODING 161
SWIDTH 205 0
DWIDTH 8 0
BBX 2 18 3 -5
BITMAP
C0
C0
C0
00
00
C0
C0
C0
C0
C0
C0
C0
C0
C0
C0
C0
C0
C0
ENDCHAR
STARTCHAR cent
ENCODING 162
SWIDTH 633 0
DWIDTH 16 0
BBX 10 18 3 0
BITMAP
0600
0600
0FC0
3FC0
7640
7600
E600
E600
E600
E600
E600
E600
7600
7640
3FC0
1F80
0600
0600
ENDCHAR
STARTCHAR sterling
ENCODING 163
SWIDTH 633 0
DWIDTH 16 0
BBX 11 18 3 0
BITMAP
03E0
0FE0
0C20
1C00
1C00
1C00
1C00
1C00
FF80
FF80
1C00
1C00
1C00
1C00
1800
3000
FFE0
FFE0
ENDCHAR
STARTCHAR currency
ENCODING 164
SWIDTH 633 0
DWIDTH 16 0
BBX 15 16 0 1
BITMAP
4004
E00E
77DC
3FF8
1C70
3838
3018
3018
3018
3018
3838
1C70
3FF8
77DC
E00E
4004
ENDCHAR
STARTCHAR yen
ENCODING 165
SWIDTH 633 0
DWIDTH 16 0
BBX 15 18 1 0
BITMAP
F00E
700C
7818
3C38
1C70
1E60
0FE0
07C0
0780
3FF0
3FF0
0380
3FF0
3FF0
0380
0380
0380
0380
ENDCHAR
STARTCHAR brokenbar
ENCODING 166
SWIDTH 265 0
DWIDTH 7 0
BBX 2 22 2 -4
BITMAP
C0
C0
C0
C0
C0
C0
C0
C0
C0
00
00
00
00
C0
C0
C0
C0
C0
C0
C0
C0
C0
ENDCHAR
STARTCHAR section
ENCODING 167
SWIDTH 633 0
DWIDTH 16 0
BBX 11 23 3 -5
BITMAP
1FC0
7FC0
6040
C000
C000
E000
F800
7F00
7F80
C7C0
C1E0
C060
F060
7C60
7FC0
1F80
03C0
00E0
0060
0060
C0E0
FFC0
7F00
ENDCHAR
STARTCHAR dieresis
ENCODING 168
SWIDTH 614 0
DWIDTH 15 0
BBX 7 2 4 16
BITMAP
C6
C6
ENDCHAR
STARTCHAR copyright
ENCODING 169
SWIDTH 855 0
DWIDTH 21 0
BBX 19 18 1 0
BITMAP
03F000
0FFE00
1E0F00
380380
71E1C0
63F0C0
C310E0
C60060
C60060
C60060
C60060
C310E0
63F0C0
71F1C0
380380
1E0F00
0FFE00
03F000
ENDCHAR
STARTCHAR ordfeminine
ENCODING 170
SWIDTH 422 0
DWIDTH 11 0
BBX 9 10 1 8
BITMAP
7E00
7F00
4700
0300
3F00
7F00
E300
C300
FF80
7B80
ENDCHAR
STARTCHAR guillemotleft
ENCODING 171
SWIDTH 524 0
DWIDTH 13 0
BBX 11 11 1 1
BITMAP
0C40
1CE0
39C0
3380
6300
E700
6300
3380
39C0
1CE0
0C40
ENDCHAR
STARTCHAR logicalnot
ENCODING 172
SWIDTH 633 0
DWIDTH 16 0
BBX 14 6 1 4
BITMAP
FFFC
FFFC
000C
000C
000C
000C
ENDCHAR
STARTCHAR hyphen
ENCODING 173
SWIDTH 325 0
DWIDTH 8 0
BBX 5 2 2 7
BITMAP
F8
F8
ENDCHAR
STARTCHAR registered
ENCODING 174
SWIDTH 633 0
DWIDTH 16 0
BBX 11 11 2 7
BITMAP
1F00
3F80
71C0
FFE0
DB60
DE60
DE60
FBE0
71C0
3F80
1F00
ENDCHAR
STARTCHAR macron
ENCODING 175
SWIDTH 614 0
DWIDTH 15 0
BBX 7 2 4 16
BITMAP
FE
FE
ENDCHAR
STARTCHAR degree
ENCODING 176
SWIDTH 277 0
DWIDTH 7 0
BBX 4 4 1 14
BITMAP
60
90
90
60
ENDCHAR
STARTCHAR plusminus
ENCODING 177
SWIDTH 633 0
DWIDTH 16 0
BBX 14 15 1 0
BITMAP
0300
0300
0300
0300
0300
FFFC
FFFC
0300
0300
0300
0300
0000
0000
FFFC
FFFC
ENDCHAR
STARTCHAR twosuperior
ENCODING 178
SWIDTH 422 0
DWIDTH 9 0
BBX 7 11 -16 7
BITMAP
7C
FE
8E
06
0E
1C
38
70
60
FE
FE
ENDCHAR
STARTCHAR threesuperior
ENCODING 179
SWIDTH 422 0
DWIDTH 9 0
BBX 7 11 -16 7
BITMAP
7C
FE
86
06
78
78
06
06
8E
FE
F8
ENDCHAR
STARTCHAR acute
ENCODING 180
SWIDTH 614 0
DWIDTH 15 0
BBX 5 4 6 14
BITMAP
38
30
60
C0
ENDCHAR
STARTCHAR mu
ENCODING 181
SWIDTH 627 0
DWIDTH 16 0
BBX 11 17 2 -4
BITMAP
E0E0
E0E0
E0E0
E0E0
E0E0
E0E0
E0E0
E0E0
E0E0
E1E0
E3E0
FEE0
FCE0
E000
E000
E000
E000
ENDCHAR
STARTCHAR paragraph
ENCODING 182
SWIDTH 633 0
DWIDTH 16 0
BBX 10 22 3 -4
BITMAP
3FC0
7FC0
FEC0
FEC0
FEC0
FEC0
7EC0
7EC0
1EC0
06C0
06C0
06C0
06C0
06C0
06C0
06C0
06C0
06C0
06C0
06C0
06C0
06C0
ENDCHAR
STARTCHAR periodcentered
ENCODING 183
SWIDTH 316 0
DWIDTH 16 0
BBX 3 3 6 6
BITMAP
E0
E0
E0
ENDCHAR
STARTCHAR cedilla
ENCODING 184
SWIDTH 614 0
DWIDTH 15 0
BBX 4 5 6 -5
BITMAP
60
40
30
30
E0
ENDCHAR
STARTCHAR onesuperior
ENCODING 185
SWIDTH 422 0
DWIDTH 9 0
BBX 4 11 -16 7
BITMAP
F0
F0
30
30
30
30
30
30
30
30
30
ENDCHAR
STARTCHAR ordmasculine
ENCODING 186
SWIDTH 422 0
DWIDTH 11 0
BBX 9 10 1 8
BITMAP
3E00
7F00
6700
C380
C380
C380
C380
6700
7F00
3E00
ENDCHAR
STARTCHAR guillemotright
ENCODING 187
SWIDTH 524 0
DWIDTH 13 0
BBX 11 11 1 1
BITMAP
4600
E700
7380
3980
18C0
1CE0
18C0
3980
7380
E700
C600
ENDCHAR
STARTCHAR onequarter
ENCODING 188
SWIDTH 801 0
DWIDTH 20 0
BBX 18 18 5 0
BITMAP
F00700
F00E00
300C00
301800
303800
307000
306000
30C380
31C780
338780
330D80
061D80
0E3980
1C3FC0
183FC0
300180
700180
E00180
ENDCHAR
STARTCHAR onehalf
ENCODING 189
SWIDTH 801 0
DWIDTH 20 0
BBX 17 18 5 0
BITMAP
F00700
F00E00
300C00
301800
303800
307000
306000
30DF00
31FF80
33A380
330180
060380
0E0700
1C0E00
181C00
301800
703F80
E03F80
ENDCHAR
STARTCHAR threequarters
ENCODING 190
SWIDTH 873 0
DWIDTH 20 0
BBX 18 18 5 0
BITMAP
7C0700
FE0E00
860C00
061800
783800
787000
066000
06C380
8FC780
FF8780
FB0D80
061D80
0E3980
1C3FC0
183FC0
300180
700180
E00180
ENDCHAR
STARTCHAR questiondown
ENCODING 191
SWIDTH 422 0
DWIDTH 11 0
BBX 10 18 0 -5
BITMAP
0E00
0E00
0E00
0000
0000
0E00
0E00
0E00
1C00
3800
3000
7000
E000
E000
E000
F040
7FC0
1F80
ENDCHAR
STARTCHAR Agrave
ENCODING 192
SWIDTH 690 0
DWIDTH 17 0
BBX 17 23 0 0
BITMAP
070000
030000
018000
00C000
000000
01C000
01E000
03E000
03E000
037000
067000
067800
0E3800
0C3800
0C1C00
181C00
1FFE00
3FFE00
300E00
300700
600700
600780
C00380
ENDCHAR
STARTCHAR Aacute
ENCODING 193
SWIDTH 690 0
DWIDTH 17 0
BBX 17 23 0 0
BITMAP
007000
006000
00C000
018000
000000
01C000
01E000
03E000
03E000
037000
067000
067800
0E3800
0C3800
0C1C00
181C00
1FFE00
3FFE00
300E00
300700
600700
600780
C00380
ENDCHAR
STARTCHAR Acircumflex
ENCODING 194
SWIDTH 690 0
DWIDTH 17 0
BBX 17 23 0 0
BITMAP
01E000
01E000
033000
061800
000000
01C000
01E000
03E000
03E000
037000
067000
067800
0E3800
0C3800
0C1C00
181C00
1FFE00
3FFE00
300E00
300700
600700
600780
C00380
ENDCHAR
STARTCHAR Atilde
ENCODING 195
SWIDTH 690 0
DWIDTH 17 0
BBX 17 22 0 0
BITMAP
038800
07F800
067000
000000
01C000
01E000
03E000
03E000
037000
067000
067800
0E3800
0C3800
0C1C00
181C00
1FFE00
3FFE00
300E00
300700
600700
600780
C00380
ENDCHAR
STARTCHAR Adieresis
ENCODING 196
SWIDTH 690 0
DWIDTH 17 0
BBX 17 21 0 0
BITMAP
063000
063000
000000
01C000
01E000
03E000
03E000
037000
067000
067800
0E3800
0C3800
0C1C00
181C00
1FFE00
3FFE00
300E00
300700
600700
600780
C00380
ENDCHAR
STARTCHAR Aring
ENCODING 197
SWIDTH 690 0
DWIDTH 17 0
BBX 17 23 0 0
BITMAP
00C000
012000
012000
00C000
000000
01C000
01E000
03E000
03E000
037000
067000
067800
0E3800
0C3800
0C1C00
181C00
1FFE00
3FFE00
300E00
300700
600700
600780
C00380
ENDCHAR
STARTCHAR AE
ENCODING 198
SWIDTH 907 0
DWIDTH 23 0
BBX 22 18 0 0
BITMAP
003FF8
003FF8
007C00
00FC00
00DC00
01DC00
019C00
031C00
071FF0
061FF0
0E1C00
0FFC00
1FFC00
181C00
301C00
701C00
601FFC
E01FFC
ENDCHAR
STARTCHAR Ccedilla
ENCODING 199
SWIDTH 692 0
DWIDTH 17 0
BBX 15 23 1 -5
BITMAP
03FC
0FFE
3E06
3800
7000
7000
E000
E000
E000
E000
E000
E000
F000
7000
7802
3E0E
1FFE
07F8
0100
0100
00C0
00C0
0380
ENDCHAR
STARTCHAR Egrave
ENCODING 200
SWIDTH 542 0
DWIDTH 14 0
BBX 11 23 2 0
BITMAP
3800
1800
0C00
0600
0000
FFC0
FFC0
E000
E000
E000
E000
E000
E000
FF80
FF80
E000
E000
E000
E000
E000
E000
FFE0
FFE0
ENDCHAR
STARTCHAR Eacute
ENCODING 201
SWIDTH 542 0
DWIDTH 14 0
BBX 11 23 2 0
BITMAP
0700
0600
0C00
1800
0000
FFC0
FFC0
E000
E000
E000
E000
E000
E000
FF80
FF80
E000
E000
E000
E000
E000
E000
FFE0
FFE0
ENDCHAR
STARTCHAR Ecircumflex
ENCODING 202
SWIDTH 542 0
DWIDTH 14 0
BBX 11 23 2 0
BITMAP
1E00
1E00
3300
6180
0000
FFC0
FFC0
E000
E000
E000
E000
E000
E000
FF80
FF80
E000
E000
E000
E000
E000
E000
FFE0
FFE0
ENDCHAR
STARTCHAR Edieresis
ENCODING 203
SWIDTH 542 0
DWIDTH 14 0
BBX 11 21 2 0
BITMAP
6300
6300
0000
FFC0
FFC0
E000
E000
E000
E000
E000
E000
FF80
FF80
E000
E000
E000
E000
E000
E000
FFE0
FFE0
ENDCHAR
STARTCHAR Igrave
ENCODING 204
SWIDTH 288 0
DWIDTH 7 0
BBX 5 23 4 0
BITMAP
E0
60
30
18
00
38
38
38
38
38
38
38
38
38
38
38
38
38
38
38
38
38
38
ENDCHAR
STARTCHAR Iacute
ENCODING 205
SWIDTH 288 0
DWIDTH 7 0
BBX 5 23 2 0
BITMAP
38
30
60
C0
00
E0
E0
E0
E0
E0
E0
E0
E0
E0
E0
E0
E0
E0
E0
E0
E0
E0
E0
ENDCHAR
STARTCHAR Icircumflex
ENCODING 206
SWIDTH 288 0
DWIDTH 7 0
BBX 8 23 4 0
BITMAP
3C
3C
66
C3
00
38
38
38
38
38
38
38
38
38
38
38
38
38
38
38
38
38
38
ENDCHAR
STARTCHAR Idieresis
ENCODING 207
SWIDTH 288 0
DWIDTH 7 0
BBX 7 21 4 0
BITMAP
C6
C6
00
38
38
38
38
38
38
38
38
38
38
38
38
38
38
38
38
38
38
ENDCHAR
STARTCHAR Eth
ENCODING 208
SWIDTH 749 0
DWIDTH 19 0
BBX 18 18 0 0
BITMAP
1FF800
1FFE00
1C0F00
1C0780
1C0380
1C03C0
1C01C0
1C01C0
FFC1C0
FFC1C0
1C01C0
1C01C0
1C0180
1C0380
1C0700
1C0F00
1FFC00
1FF000
ENDCHAR
STARTCHAR Ntilde
ENCODING 209
SWIDTH 741 0
DWIDTH 19 0
BBX 14 22 2 0
BITMAP
0E20
1FE0
19C0
0000
E00C
F00C
F00C
F80C
FC0C
DC0C
DE0C
CF0C
C70C
C38C
C3CC
C1EC
C0EC
C0FC
C07C
C03C
C03C
C01C
ENDCHAR
STARTCHAR Ograve
ENCODING 210
SWIDTH 777 0
DWIDTH 19 0
BBX 17 23 1 0
BITMAP
070000
030000
018000
00C000
000000
07F000
1FFC00
3C1E00
780F00
700700
700700
E00380
E00380
E00380
E00380
E00380
E00380
700700
700700
780F00
3C1E00
1FFC00
07F000
ENDCHAR
STARTCHAR Oacute
ENCODING 211
SWIDTH 777 0
DWIDTH 19 0
BBX 17 23 1 0
BITMAP
007000
006000
00C000
018000
000000
07F000
1FFC00
3C1E00
780F00
700700
700700
E00380
E00380
E00380
E00380
E00380
E00380
700700
700700
780F00
3C1E00
1FFC00
07F000
ENDCHAR
STARTCHAR Ocircumflex
ENCODING 212
SWIDTH 777 0
DWIDTH 19 0
BBX 17 23 1 0
BITMAP
01E000
01E000
033000
061800
000000
07F000
1FFC00
3C1E00
780F00
700700
700700
E00380
E00380
E00380
E00380
E00380
E00380
700700
700700
780F00
3C1E00
1FFC00
07F000
ENDCHAR
STARTCHAR Otilde
ENCODING 213
SWIDTH 777 0
DWIDTH 19 0
BBX 17 22 1 0
BITMAP
038800
07F800
067000
000000
07F000
1FFC00
3C1E00
780F00
700700
700700
E00380
E00380
E00380
E00380
E00380
E00380
700700
700700
780F00
3C1E00
1FFC00
07F000
ENDCHAR
STARTCHAR Odieresis
ENCODING 214
SWIDTH 777 0
DWIDTH 19 0
BBX 17 21 1 0
BITMAP
063000
063000
000000
07F000
1FFC00
3C1E00
780F00
700700
700700
E00380
E00380
E00380
E00380
E00380
E00380
700700
700700
780F00
3C1E00
1FFC00
07F000
ENDCHAR
STARTCHAR multiply
ENCODING 215
SWIDTH 633 0
DWIDTH 16 0
BBX 14 15 1 0
BITMAP
4008
E01C
7038
3870
1CE0
0CC0
0780
0300
0780
0CC0
1CE0
3870
7038
E01C
4008
ENDCHAR
STARTCHAR Oslash
ENCODING 216
SWIDTH 777 0
DWIDTH 19 0
BBX 17 18 1 0
BITMAP
07F380
1FFF00
3C1E00
780F00
701F00
703F00
E07380
E0E380
E0C380
E18380
E38380
E70380
7E0700
7C0700
780F00
3C1E00
7FFC00
E7F000
ENDCHAR
STARTCHAR Ugrave
ENCODING 217
SWIDTH 693 0
DWIDTH 17 0
BBX 13 23 2 0
BITMAP
1C00
0C00
0600
0300
0000
E018
E018
E018
E018
E018
E018
E018
E018
E018
E018
E018
E018
E018
E018
F038
7870
3FE0
1FC0
ENDCHAR
STARTCHAR Uacute
ENCODING 218
SWIDTH 693 0
DWIDTH 17 0
BBX 13 23 2 0
BITMAP
01C0
0180
0300
0600
0000
E018
E018
E018
E018
E018
E018
E018
E018
E018
E018
E018
E018
E018
E018
F038
7870
3FE0
1FC0
ENDCHAR
STARTCHAR Ucircumflex
ENCODING 219
SWIDTH 693 0
DWIDTH 17 0
BBX 13 23 2 0
BITMAP
0780
0780
0CC0
1860
0000
E018
E018
E018
E018
E018
E018
E018
E018
E018
E018
E018
E018
E018
E018
F038
7870
3FE0
1FC0
ENDCHAR
STARTCHAR Udieresis
ENCODING 220
SWIDTH 693 0
DWIDTH 17 0
BBX 13 21 2 0
BITMAP
18C0
18C0
0000
E018
E018
E018
E018
E018
E018
E018
E018
E018
E018
E018
E018
E018
E018
F038
7870
3FE0
1FC0
ENDCHAR
STARTCHAR Yacute
ENCODING 221
SWIDTH 623 0
DWIDTH 16 0
BBX 15 23 0 0
BITMAP
00E0
00C0
0180
0300
0000
E00E
700C
7818
3818
3C30
1C70
1E60
0FE0
07C0
0780
0380
0380
0380
0380
0380
0380
0380
0380
ENDCHAR
STARTCHAR Thorn
ENCODING 222
SWIDTH 553 0
DWIDTH 14 0
BBX 11 18 2 0
BITMAP
E000
E000
E000
FF80
FFC0
E1E0
E0E0
E0E0
E0E0
E0E0
E0E0
E1C0
E3C0
FF80
FE00
E000
E000
E000
ENDCHAR
STARTCHAR germandbls
ENCODING 223
SWIDTH 598 0
DWIDTH 15 0
BBX 12 20 2 0
BITMAP
3E00
7F00
F780
E380
E380
E300
E300
E600
E600
E700
E780
E3C0
E3E0
E0F0
E070
E030
E030
E470
E7E0
E7C0
ENDCHAR
STARTCHAR agrave
ENCODING 224
SWIDTH 552 0
DWIDTH 14 0
BBX 12 18 1 0
BITMAP
1C00
0C00
0600
0300
0000
1F80
7FC0
41C0
01C0
01C0
1FC0
7FC0
F1C0
E1C0
E1C0
E3C0
7EF0
3C70
ENDCHAR
STARTCHAR aacute
ENCODING 225
SWIDTH 552 0
DWIDTH 14 0
BBX 12 18 1 0
BITMAP
0380
0300
0600
0C00
0000
1F80
7FC0
41C0
01C0
01C0
1FC0
7FC0
F1C0
E1C0
E1C0
E3C0
7EF0
3C70
ENDCHAR
STARTCHAR acircumflex
ENCODING 226
SWIDTH 552 0
DWIDTH 14 0
BBX 12 18 1 0
BITMAP
0F00
0F00
1980
30C0
0000
1F80
7FC0
41C0
01C0
01C0
1FC0
7FC0
F1C0
E1C0
E1C0
E3C0
7EF0
3C70
ENDCHAR
STARTCHAR atilde
ENCODING 227
SWIDTH 552 0
DWIDTH 14 0
BBX 12 17 1 0
BITMAP
1C40
3FC0
3380
0000
1F80
7FC0
41C0
01C0
01C0
1FC0
7FC0
F1C0
E1C0
E1C0
E3C0
7EF0
3C70
ENDCHAR
STARTCHAR adieresis
ENCODING 228
SWIDTH 552 0
DWIDTH 14 0
BBX 12 16 1 0
BITMAP
3180
3180
0000
1F80
7FC0
41C0
01C0
01C0
1FC0
7FC0
F1C0
E1C0
E1C0
E3C0
7EF0
3C70
ENDCHAR
STARTCHAR aring
ENCODING 229
SWIDTH 552 0
DWIDTH 14 0
BBX 12 18 1 0
BITMAP
0600
0900
0900
0600
0000
1F80
7FC0
41C0
01C0
01C0
1FC0
7FC0
F1C0
E1C0
E1C0
E3C0
7EF0
3C70
ENDCHAR
STARTCHAR ae
ENCODING 230
SWIDTH 853 0
DWIDTH 21 0
BBX 18 13 1 0
BITMAP
1F1E00
7FFF80
41E380
01C1C0
01C1C0
1FFFC0
7FFFC0
F1C000
E1C000
E1E000
E37040
7E3FC0
3C1F80
ENDCHAR
STARTCHAR ccedilla
ENCODING 231
SWIDTH 518 0
DWIDTH 13 0
BBX 11 18 1 -5
BITMAP
0FE0
3FE0
7820
7000
E000
E000
E000
E000
E000
7000
7820
3FE0
0FC0
0400
0400
0300
0300
0E00
ENDCHAR
STARTCHAR egrave
ENCODING 232
SWIDTH 557 0
DWIDTH 14 0
BBX 11 18 1 0
BITMAP
1C00
0C00
0600
0300
0000
1F00
3F80
71C0
60E0
E0E0
FFE0
FFE0
E000
E000
7000
7820
3FE0
0FC0
ENDCHAR
STARTCHAR eacute
ENCODING 233
SWIDTH 557 0
DWIDTH 14 0
BBX 11 18 1 0
BITMAP
0380
0300
0600
0C00
0000
1F00
3F80
71C0
60E0
E0E0
FFE0
FFE0
E000
E000
7000
7820
3FE0
0FC0
ENDCHAR
STARTCHAR ecircumflex
ENCODING 234
SWIDTH 557 0
DWIDTH 14 0
BBX 11 18 1 0
BITMAP
0F00
0F00
1980
30C0
0000
1F00
3F80
71C0
60E0
E0E0
FFE0
FFE0
E000
E000
7000
7820
3FE0
0FC0
ENDCHAR
STARTCHAR edieresis
ENCODING 235
SWIDTH 557 0
DWIDTH 14 0
BBX 11 16 1 0
BITMAP
3180
3180
0000
1F00
3F80
71C0
60E0
E0E0
FFE0
FFE0
E000
E000
7000
7820
3FE0
0FC0
ENDCHAR
STARTCHAR igrave
ENCODING 236
SWIDTH 289 0
DWIDTH 7 0
BBX 5 18 4 0
BITMAP
E0
60
30
18
00
38
38
38
38
38
38
38
38
38
38
38
38
38
ENDCHAR
STARTCHAR iacute
ENCODING 237
SWIDTH 289 0
DWIDTH 7 0
BBX 5 18 2 0
BITMAP
38
30
60
C0
00
E0
E0
E0
E0
E0
E0
E0
E0
E0
E0
E0
E0
E0
ENDCHAR
STARTCHAR icircumflex
ENCODING 238
SWIDTH 289 0
DWIDTH 7 0
BBX 8 18 4 0
BITMAP
3C
3C
66
C3
00
38
38
38
38
38
38
38
38
38
38
38
38
38
ENDCHAR
STARTCHAR idieresis
ENCODING 239
SWIDTH 289 0
DWIDTH 7 0
BBX 7 16 4 0
BITMAP
C6
C6
00
38
38
38
38
38
38
38
38
38
38
38
38
38
ENDCHAR
STARTCHAR eth
ENCODING 240
SWIDTH 602 0
DWIDTH 15 0
BBX 12 18 2 0
BITMAP
FE00
8F00
3E00
3300
2180
1FC0
3FE0
78E0
F0F0
E070
E070
E070
E070
E070
70E0
78E0
3FC0
1F80
ENDCHAR
STARTCHAR ntilde
ENCODING 241
SWIDTH 620 0
DWIDTH 16 0
BBX 11 17 2 0
BITMAP
3880
7F80
6700
0000
E780
EFC0
F8E0
F0E0
E0E0
E0E0
E0E0
E0E0
E0E0
E0E0
E0E0
E0E0
E0E0
ENDCHAR
STARTCHAR ograve
ENCODING 242
SWIDTH 614 0
DWIDTH 15 0
BBX 13 18 1 0
BITMAP
1C00
0C00
0600
0300
0000
0F80
3FE0
78F0
7070
E038
E038
E038
E038
E038
7070
78F0
3FE0
0F80
ENDCHAR
STARTCHAR oacute
ENCODING 243
SWIDTH 614 0
DWIDTH 15 0
BBX 13 18 1 0
BITMAP
01C0
0180
0300
0600
0000
0F80
3FE0
78F0
7070
E038
E038
E038
E038
E038
7070
78F0
3FE0
0F80
ENDCHAR
STARTCHAR ocircumflex
ENCODING 244
SWIDTH 614 0
DWIDTH 15 0
BBX 13 18 1 0
BITMAP
0780
0780
0CC0
1860
0000
0F80
3FE0
78F0
7070
E038
E038
E038
E038
E038
7070
78F0
3FE0
0F80
ENDCHAR
STARTCHAR otilde
ENCODING 245
SWIDTH 614 0
DWIDTH 15 0
BBX 13 17 1 0
BITMAP
0E20
1FE0
19C0
0000
0F80
3FE0
78F0
7070
E038
E038
E038
E038
E038
7070
78F0
3FE0
0F80
ENDCHAR
STARTCHAR odieresis
ENCODING 246
SWIDTH 614 0
DWIDTH 15 0
BBX 13 16 1 0
BITMAP
18C0
18C0
0000
0F80
3FE0
78F0
7070
E038
E038
E038
E038
E038
7070
78F0
3FE0
0F80
ENDCHAR
STARTCHAR divide
ENCODING 247
SWIDTH 633 0
DWIDTH 16 0
BBX 15 13 0 0
BITMAP
0380
0380
0380
0000
0000
0000
FFFE
FFFE
0000
0000
0380
0380
0380
ENDCHAR
STARTCHAR oslash
ENCODING 248
SWIDTH 614 0
DWIDTH 15 0
BBX 13 13 1 0
BITMAP
0FB8
3FF0
78F0
70F0
E1B8
E3B8
E738
EE38
EC38
7870
78F0
7FE0
EF80
ENDCHAR
STARTCHAR ugrave
ENCODING 249
SWIDTH 620 0
DWIDTH 16 0
BBX 11 18 2 0
BITMAP
3800
1800
0C00
0600
0000
E0E0
E0E0
E0E0
E0E0
E0E0
E0E0
E0E0
E0E0
E0E0
E1E0
E3E0
7EE0
3CE0
ENDCHAR
STARTCHAR uacute
ENCODING 250
SWIDTH 620 0
DWIDTH 16 0
BBX 11 18 2 0
BITMAP
0380
0300
0600
0C00
0000
E0E0
E0E0
E0E0
E0E0
E0E0
E0E0
E0E0
E0E0
E0E0
E1E0
E3E0
7EE0
3CE0
ENDCHAR
STARTCHAR ucircumflex
ENCODING 251
SWIDTH 620 0
DWIDTH 16 0
BBX 11 18 2 0
BITMAP
0F00
0F00
1980
30C0
0000
E0E0
E0E0
E0E0
E0E0
E0E0
E0E0
E0E0
E0E0
E0E0
E1E0
E3E0
7EE0
3CE0
ENDCHAR
STARTCHAR udieresis
ENCODING 252
SWIDTH 620 0
DWIDTH 16 0
BBX 11 16 2 0
BITMAP
3180
3180
0000
E0E0
E0E0
E0E0
E0E0
E0E0
E0E0
E0E0
E0E0
E0E0
E1E0
E3E0
7EE0
3CE0
ENDCHAR
STARTCHAR yacute
ENCODING 253
SWIDTH 568 0
DWIDTH 13 0
BBX 13 23 0 -5
BITMAP
01C0
0180
0300
0600
0000
E018
F030
7030
7070
7860
3860
3CC0
1CC0
1D80
1F80
0F80
0F00
0700
0600
0600
0E00
0C00
1C00
ENDCHAR
STARTCHAR thorn
ENCODING 254
SWIDTH 630 0
DWIDTH 16 0
BBX 12 22 2 -5
BITMAP
E000
E000
E000
E000
E780
EFE0
F8E0
E0F0
E070
E070
E070
E070
E070
E0E0
F1E0
FFC0
EF80
E000
E000
E000
E000
E000
ENDCHAR
STARTCHAR ydieresis
ENCODING 255
SWIDTH 568 0
DWIDTH 13 0
BBX 13 21 0 -5
BITMAP
18C0
18C0
0000
E018
F030
7030
7070
7860
3860
3CC0
1CC0
1D80
1F80
0F80
0F00
0700
0600
0600
0E00
0C00
1C00
ENDCHAR
ENDFONT
